HIERARCHY
ROOT joint_0
{
	OFFSET 0.000000 0.000000 0.000000
	CHANNELS 6 Xposition Yposition Zposition Zrotation Yrotation Xrotation 
	JOINT joint_1
	{
		OFFSET 17.107422 0.519409 105.452026
		CHANNELS 3 Zrotation Yrotation Xrotation
		JOINT joint_2
		{
			OFFSET 6.110352 -1.434082 97.381958
			CHANNELS 3 Zrotation Yrotation Xrotation
			JOINT joint_3
			{
				OFFSET 6.305908 -1.739990 97.255005
				CHANNELS 3 Zrotation Yrotation Xrotation
				JOINT joint_4
				{
					OFFSET 22.074707 -0.492493 131.077026
					CHANNELS 3 Zrotation Yrotation Xrotation
					JOINT joint_5
					{
						OFFSET 34.162842 2.248718 78.700928
						CHANNELS 3 Zrotation Yrotation Xrotation
						End Site
						{
							OFFSET 0.000000 0.000000 0.000000
						}
					}
				}
				JOINT joint_6
				{
					OFFSET 17.059082 -28.836914 72.664062
					CHANNELS 3 Zrotation Yrotation Xrotation
					JOINT joint_7
					{
						OFFSET 22.639893 -134.803833 -24.691040
						CHANNELS 3 Zrotation Yrotation Xrotation
						JOINT joint_8
						{
							OFFSET 7.301758 -32.590759 -269.966064
							CHANNELS 3 Zrotation Yrotation Xrotation
							JOINT joint_9
							{
								OFFSET 35.581055 -8.517151 -242.326965
								CHANNELS 3 Zrotation Yrotation Xrotation
								End Site
								{
									OFFSET 0.000000 0.000000 0.000000
								}
							}
						}
					}
				}
				JOINT joint_10
				{
					OFFSET 7.819092 28.232056 74.432983
					CHANNELS 3 Zrotation Yrotation Xrotation
					JOINT joint_11
					{
						OFFSET -23.457031 135.063843 -22.406982
						CHANNELS 3 Zrotation Yrotation Xrotation
						JOINT joint_12
						{
							OFFSET 17.896973 48.138672 -267.131958
							CHANNELS 3 Zrotation Yrotation Xrotation
							JOINT joint_13
							{
								OFFSET 46.526367 17.567627 -239.975037
								CHANNELS 3 Zrotation Yrotation Xrotation
								End Site
								{
									OFFSET 0.000000 0.000000 0.000000
								}
							}
						}
					}
				}
			}
		}
	}
	JOINT joint_14
	{
		OFFSET 10.553467 -100.140320 -126.306030
		CHANNELS 3 Zrotation Yrotation Xrotation
		JOINT joint_15
		{
			OFFSET -52.094238 -9.565002 -436.052002
			CHANNELS 3 Zrotation Yrotation Xrotation
			JOINT joint_16
			{
				OFFSET -55.682617 -11.310120 -462.482971
				CHANNELS 3 Zrotation Yrotation Xrotation
				JOINT joint_17
				{
					OFFSET 179.119385 -5.942566 -84.087004
					CHANNELS 3 Zrotation Yrotation Xrotation
					End Site
					{
						OFFSET 0.000000 0.000000 0.000000
					}
				}
			}
		}
	}
	JOINT joint_18
	{
		OFFSET -22.235352 101.620483 -123.583984
		CHANNELS 3 Zrotation Yrotation Xrotation
		JOINT joint_19
		{
			OFFSET -38.118408 12.306396 -437.429016
			CHANNELS 3 Zrotation Yrotation Xrotation
			JOINT joint_20
			{
				OFFSET -51.789307 8.010498 -463.006004
				CHANNELS 3 Zrotation Yrotation Xrotation
				JOINT joint_21
				{
					OFFSET 170.088135 59.632324 -83.078003
					CHANNELS 3 Zrotation Yrotation Xrotation
					End Site
					{
						OFFSET 0.000000 0.000000 0.000000
					}
				}
			}
		}
	}
}
MOTION
Frames: 10
Frame Time: 0.016667
-3462.427246 990.546326 1127.531006 -1.280916 -6.362667 0.496239 0.272322 4.376866 -0.223010 0.176677 -0.901638 0.050081 0.215304 0.876532 -0.044731 0.253465 -2.435364 -0.418687 0.000000 0.000000 0.000000 -0.519747 1.078455 0.184286 -0.037694 1.029608 0.428000 -0.145618 1.741473 -0.587392 0.000000 0.000000 0.000000 -1.241892 1.411034 -0.186754 0.062935 1.371860 -1.654375 0.160455 1.214956 0.366567 0.000000 0.000000 0.000000 -0.998322 1.164299 -1.471198 -1.049996 2.085249 -1.225826 -1.121493 0.939002 -0.490438 0.000000 0.000000 0.000000 0.995372 1.624895 -1.239990 0.898358 2.171048 0.057262 0.837950 0.224423 0.327311 0.000000 0.000000 0.000000 
-3460.497559 990.764465 1127.526978 -1.249366 -6.268241 0.474245 0.269421 4.417566 -0.189253 0.176396 -0.909463 0.039181 0.214267 0.883768 -0.039050 0.262243 -2.521199 -0.433591 0.000000 0.000000 0.000000 -0.596268 1.192896 0.190512 -0.042289 1.114628 0.337587 -0.128727 1.693037 -0.482847 0.000000 0.000000 0.000000 -1.123172 1.469850 -0.237305 0.075392 1.430390 -1.605456 0.147918 1.168823 0.319976 0.000000 0.000000 0.000000 -0.987049 1.189738 -1.501646 -1.047541 2.128739 -1.185295 -1.102774 0.545120 -0.494965 0.000000 0.000000 0.000000 1.023258 1.568904 -1.215671 0.936337 2.316824 0.032741 0.855402 -0.032744 0.425976 0.000000 0.000000 0.000000 
-3458.208496 991.168335 1127.527954 -1.241590 -6.139124 0.445966 0.260303 4.493446 -0.130033 0.171729 -0.917287 0.018228 0.207796 0.890558 -0.026853 0.275487 -2.633391 -0.456906 0.000000 0.000000 0.000000 -0.660889 1.298270 0.181193 -0.047716 1.191964 0.225369 -0.112248 1.633489 -0.383675 0.000000 0.000000 0.000000 -0.998781 1.549738 -0.307698 0.092312 1.513659 -1.554460 0.126826 1.085705 0.243120 0.000000 0.000000 0.000000 -0.952867 1.206503 -1.546486 -1.026429 2.166630 -1.124072 -1.061719 0.066739 -0.491919 0.000000 0.000000 0.000000 1.054417 1.489257 -1.206649 0.975806 2.481280 0.027168 0.874540 -0.316677 0.534870 0.000000 0.000000 0.000000 
-3455.571777 991.720642 1127.536011 -1.250819 -5.979476 0.411523 0.244269 4.592487 -0.045809 0.162053 -0.925415 -0.012144 0.195427 0.896722 -0.010112 0.292754 -2.771813 -0.487619 0.000000 0.000000 0.000000 -0.715127 1.401828 0.161291 -0.053608 1.267329 0.089345 -0.095317 1.565877 -0.283293 0.000000 0.000000 0.000000 -0.863391 1.648963 -0.400286 0.113784 1.620672 -1.494555 0.098473 0.971451 0.140521 0.000000 0.000000 0.000000 -0.900725 1.217399 -1.605201 -0.991584 2.202886 -1.042164 -1.002856 -0.499984 -0.483515 0.000000 0.000000 0.000000 1.089701 1.387966 -1.206305 1.018902 2.667978 0.032648 0.896180 -0.633474 0.656528 0.000000 0.000000 0.000000 
-3452.629150 992.428528 1127.525024 -1.283366 -5.799921 0.373819 0.245198 4.782003 0.037256 0.167600 -0.959168 -0.041639 0.199095 0.924267 0.008418 0.308703 -2.929098 -0.514194 0.000000 0.000000 0.000000 -0.791290 1.484878 0.104614 -0.056246 1.325570 -0.036518 -0.074264 1.470399 -0.161210 0.000000 0.000000 0.000000 -0.756087 1.742062 -0.468099 0.129982 1.713899 -1.476276 0.069401 0.849194 0.037181 0.000000 0.000000 0.000000 -0.837003 1.223336 -1.666312 -0.945071 2.235907 -0.963577 -0.933075 -1.079778 -0.470432 0.000000 0.000000 0.000000 1.130130 1.272584 -1.214657 1.067177 2.880781 0.041681 0.920986 -0.982073 0.790893 0.000000 0.000000 0.000000 
-3449.446777 993.338501 1127.491943 -1.356880 -5.609338 0.331889 0.273582 5.137812 0.112966 0.197094 -1.042360 -0.071137 0.228288 0.993757 0.029106 0.320424 -3.108987 -0.529667 0.000000 0.000000 0.000000 -0.891933 1.523124 -0.004993 -0.052913 1.346645 -0.137440 -0.045700 1.321359 -0.000539 0.000000 0.000000 0.000000 -0.700212 1.813302 -0.485219 0.134937 1.768740 -1.541343 0.044011 0.727934 -0.047601 0.000000 0.000000 0.000000 -0.760574 1.222998 -1.724655 -0.884062 2.268167 -0.897962 -0.851742 -1.638215 -0.451213 0.000000 0.000000 0.000000 1.181406 1.147309 -1.235637 1.125748 3.125609 0.057706 0.954143 -1.361043 0.939970 0.000000 0.000000 0.000000 
-3446.010742 994.447998 1127.444946 -1.469521 -5.404374 0.284785 0.320798 5.634521 0.189418 0.243227 -1.158635 -0.104835 0.274656 1.086284 0.054355 0.329964 -3.313967 -0.538345 0.000000 0.000000 0.000000 -1.006878 1.525245 -0.160460 -0.045226 1.338533 -0.223269 -0.010914 1.126515 0.191076 0.000000 0.000000 0.000000 -0.678327 1.874299 -0.469905 0.132505 1.800881 -1.671446 0.019997 0.599679 -0.122559 0.000000 0.000000 0.000000 -0.668958 1.215890 -1.785394 -0.807842 2.301154 -0.836442 -0.756317 -2.204352 -0.425630 0.000000 0.000000 0.000000 1.243661 1.009897 -1.269551 1.194502 3.400773 0.082953 0.995829 -1.769623 1.103578 0.000000 0.000000 0.000000 
-3442.135010 995.582825 1127.340942 -1.561836 -5.171152 0.241649 0.412909 6.120442 0.227221 0.331005 -1.266653 -0.115749 0.364341 1.170270 0.072269 0.331116 -3.500080 -0.529804 0.000000 0.000000 0.000000 -1.234289 1.549291 -0.357975 -0.035331 1.345676 -0.266835 0.025947 0.938863 0.397105 0.000000 0.000000 0.000000 -0.702673 1.920151 -0.401267 0.120705 1.809937 -1.828884 -0.002354 0.495117 -0.197629 0.000000 0.000000 0.000000 -0.586477 1.207077 -1.834902 -0.735278 2.315472 -0.806123 -0.670309 -2.698214 -0.401998 0.000000 0.000000 0.000000 1.292304 0.858998 -1.297801 1.252998 3.688853 0.082875 1.023679 -2.200083 1.268170 0.000000 0.000000 0.000000 
-3437.674561 996.646057 1127.145996 -1.612766 -4.893408 0.208088 0.588001 6.513567 0.191428 0.497252 -1.354336 -0.081527 0.535907 1.237359 0.072534 0.316610 -3.649209 -0.489628 0.000000 0.000000 0.000000 -1.699292 1.632921 -0.594966 -0.020645 1.384872 -0.251867 0.064436 0.796290 0.623080 0.000000 0.000000 0.000000 -0.802193 1.937313 -0.240735 0.093011 1.778408 -2.019037 -0.018642 0.451806 -0.264373 0.000000 0.000000 0.000000 -0.526951 1.200166 -1.861647 -0.675274 2.284696 -0.829946 -0.606363 -3.081679 -0.384963 0.000000 0.000000 0.000000 1.313758 0.679946 -1.308661 1.291388 3.996750 0.033870 1.025391 -2.658574 1.429930 0.000000 0.000000 0.000000 
-3432.697998 997.703369 1126.878052 -1.645478 -4.574460 0.180431 0.834616 6.865765 0.096844 0.731286 -1.428960 -0.009409 0.778469 1.295745 0.055942 0.288385 -3.781245 -0.420507 0.000000 0.000000 0.000000 -2.365010 1.754646 -0.868448 0.000042 1.438598 -0.192412 0.106584 0.678310 0.877673 0.000000 0.000000 0.000000 -0.965269 1.927029 0.002203 0.050062 1.706070 -2.250656 -0.029463 0.459024 -0.321880 0.000000 0.000000 0.000000 -0.480644 1.191308 -1.870616 -0.620240 2.216349 -0.897332 -0.555149 -3.384158 -0.371148 0.000000 0.000000 0.000000 1.317270 0.470995 -1.309027 1.317401 4.331457 -0.050800 1.009592 -3.144990 1.592987 0.000000 0.000000 0.000000 
